# AST/ASF file generated using VICON BodyLanguage
# -----------------------------------------------
:version 1.10
:name VICON
:units
  mass 1.0
  length 0.45
  angle deg
:documentation
   .ast/.asf automatically generated from VICON data using
   VICON BodyBuilder and BodyLanguage model FoxedUp or BRILLIANT.MOD
:root
   order TX TY TZ RX RY RZ
   axis XYZ
   position 0 0 0  
   orientation 0 0 0 
:bonedata
  begin
     id 1 
     name lhipjoint
     direction 0.612567 -0.751349 0.245431 
     length 2.42285 
     axis 0 0 0  XYZ
  end
  begin
     id 2 
     name lfemur
     direction 0.34202 -0.939693 0  
     length 7.11304  
     axis 0 0 20  XYZ
    dof rx ry rz
    limits (-160.0 20.0)
           (-70.0 70.0)
           (-60.0 70.0)
  end
  begin
     id 3 
     name ltibia
     direction 0.34202 -0.939693 0   
     length 7.84529   
     axis 0 0 20   XYZ
    dof rx
    limits (-10.0 170.0)
  end
  begin
     id 4 
     name lfoot
     direction 0.0779239 -0.214094 0.9737   
     length 1.97176   
     axis -90 7.62852e-016 20   XYZ
    dof rx rz
    limits (-45.0 90.0)
           (-70.0 20.0)
  end
  begin
     id 5 
     name ltoes
     direction 1.53565e-011 -4.21709e-011 1   
     length 0.993197   
     axis -90 7.62852e-016 20   XYZ
    dof rx
    limits (-90.0 20.0)
  end
  begin
     id 6 
     name rhipjoint
     direction -0.665722 -0.709315 0.231701   
     length 2.56642  
     axis 0 0 0  XYZ 
  end
  begin
     id 7 
     name rfemur
     direction -0.34202 -0.939693 0   
     length 7.32108   
     axis 0 0 -20   XYZ
    dof rx ry rz
    limits (-160.0 20.0)
           (-70.0 70.0)
           (-70.0 60.0)
  end
  begin
     id 8 
     name rtibia
     direction -0.34202 -0.939693 0   
     length 7.81254   
     axis 0 0 -20   XYZ
    dof rx
    limits (-10.0 170.0)
 end
 begin
     id 9 
     name rfoot
     direction -0.0832806 -0.228812 0.969902   
     length 2.08278  
     axis -90 -7.62852e-016 -20   XYZ
    dof rx rz
    limits (-45.0 90.0)
           (-20.0 70.0)
  end
  begin
     id 10 
     name rtoes
     direction -1.53589e-011 -4.22086e-011 1   
     length 1.04609   
     axis -90 -7.62852e-016 -20   XYZ
    dof rx
    limits (-90.0 20.0)
  end
  begin
     id 11 
     name lowerback
     direction -0.00506013 0.988403 -0.151766   
     length 2.01978   
     axis 0 0 0   XYZ
    dof rx ry rz
    limits (-20.0 45.0)
           (-30.0 30.0)
           (-30.0 30.0)
  end
  begin
     id 12 
     name upperback
     direction -0.00836389 0.99968 0.0238859   
     length 2.01276   
     axis 0 0 0   XYZ
    dof rx ry rz
    limits (-20.0 45.0)
           (-30.0 30.0)
           (-30.0 30.0)
  end
  begin
     id 13 
     name thorax
     direction -0.00684136 0.995386 0.0957043   
     length 2.07303   
     axis 0 0 0   XYZ
    dof rx ry rz
    limits (-20.0 45.0)
           (-30.0 30.0)
           (-30.0 30.0)
  end
  begin
     id 14 
     name lowerneck
     direction -0.0161045 0.999661 0.0204485   
     length 1.91243   
     axis 0 0 0   XYZ
    dof rx ry rz
    limits (-20.0 45.0)
           (-30.0 30.0)
           (-30.0 30.0)
  end
  begin
     id 15 
     name upperneck
     direction 0.0553583 0.990946 -0.122319   
     length 1.91574   
     axis 0 0 0   XYZ
    dof rx ry rz
    limits (-20.0 45.0)
           (-30.0 30.0)
           (-30.0 30.0)
  end
  begin
     id 16
     name head
     direction 0.0180273 0.998839 -0.0446756  
     length 1.92693  
     axis 0 0 0   XYZ
    dof rx ry rz
    limits (-20.0 45.0)
           (-30.0 30.0)
           (-30.0 30.0)
  end
  begin
     id 17 
     name lclavicle
     direction 0.945646 0.319323 -0.0615358  
     length 4.0076  
     axis 0 0 0   XYZ
    dof ry rz
    limits (-20.0 10.0)
           (0.0 20.0)
  end
  begin
     id 18 
     name lhumerus
     direction 1 -4.48967e-011 -2.79996e-027   
     length 5.64147   
     axis 180 -30 -90   XYZ
    dof rx ry rz
    limits (-60.0 90.0)
           (-90.0 90.0)
           (-90.0 90.0)
  end
  begin
     id 19
     name lradius
     direction 1 -4.48976e-011 -9.5122e-027   
     length 2.86444   
     axis 180 -30 -90   XYZ
    dof rx
    limits (-10.0 170.0)
  end
  begin
     id 20
     name lwrist
     direction 1 -4.48983e-011 -1.24047e-026   
     length 1.43222   
     axis 9.05591e-015 90 90   XYZ
    dof ry
    limits (-180.0 0.0)
 end
  begin
     id 21 
     name lhand
     direction 1 -4.4892e-011 -2.48094e-026   
     length 0.722123   
     axis 1.58305e-014 90 90   XYZ
    dof rx rz
    limits (-90.0 90.0)
           (-45.0 45.0)
  end
  begin
     id 22 
     name lfingers
     direction 1 -4.48895e-011 -4.96187e-026   
     length 0.582194   
     axis 3.1661e-014 90 90   XYZ
    dof rx
    limits (0.0 90.0)
  end
  begin
     id 23
     name lthumb
     direction 0.707107 -6.34961e-011 0.707107   
     length 0.835918   
     axis -90 45 2.85299e-015   XYZ
    dof rx rz
    limits (-45.0 45.0)
           (-45.0 45.0)
  end
  begin
     id 24 
     name rclavicle
     direction -0.932635 0.324218 -0.15835   
     length 3.65819  
     axis 0 0 0   XYZ 
    dof ry rz
    limits (-10.0 20.0)
           (-20.0 0.0)
  end
  begin
     id 25 
     name rhumerus
     direction -1 -4.48965e-011 -4.02296e-027  
     length 5.44729   
     axis 180 30 90   XYZ
    dof rx ry rz
    limits (-90.0 60.0)
           (-90.0 90.0)
           (-90.0 90.0)
  end
  begin
     id 26 
     name rradius
     direction -1 -4.48957e-011 -8.81087e-027   
     length 3.08821   
     axis 180 30 90   XYZ
    dof rx
    limits (-10.0 170.0)
  end
  begin
     id 27 
     name rwrist
     direction -1 -4.49015e-011 -1.24047e-026   
     length 1.5441   
     axis 9.05591e-015 -90 -90   XYZ
    dof ry
    limits (-180.0 0.0)
  end
  begin
     id 28
     name rhand
     direction -1 -4.4891e-011 -2.48094e-026   
     length 0.821049   
     axis 1.58305e-014 -90 -90   XYZ
    dof rx rz
    limits (-90.0 90.0)
           (-45.0 45.0)
  end
  begin
     id 29
     name rfingers
     direction -1 -4.48985e-011 -4.96187e-026   
     length 0.661951   
     axis 3.1661e-014 -90 -90   XYZ
    dof rx
    limits (0.0 90.0)
  end
  begin
     id 30
     name rthumb
     direction -0.707107 -6.34906e-011 0.707107   
     length 0.950433   
     axis -90 -45 -2.85299e-015   XYZ
    dof rx rz
    limits (-45.0 45.0)
           (-45.0 45.0)
  end
:hierarchy
  begin
    root lhipjoint rhipjoint lowerback
    lhipjoint lfemur
    lfemur ltibia
    ltibia lfoot
    lfoot ltoes
    rhipjoint rfemur
    rfemur rtibia
    rtibia rfoot
    rfoot rtoes
    lowerback upperback
    upperback thorax
    thorax lowerneck lclavicle rclavicle
    lowerneck upperneck
    upperneck head
    lclavicle lhumerus
    lhumerus lradius
    lradius lwrist
    lwrist lhand lthumb
    lhand lfingers
    rclavicle rhumerus
    rhumerus rradius
    rradius rwrist
    rwrist rhand rthumb
    rhand rfingers
  end

#!OML:ASF F:\VICON\USERDATA\INSTALL\rory3\rory3.ASF
:FULLY-SPECIFIED
:DEGREES
2691
root 3.20477 17.7082 0.202316 551.274 89.4031 553.686
lowerback 5.09213 0.105423 2.71458
upperback 1.07523 0.271128 -1.81714
thorax -1.72707 0.130492 -3.41603
lowerneck -3.87488 -5.01751 -5.72504
upperneck 4.59402 -6.88685 10.0928
head 2.54808 -3.22052 3.71559
rclavicle -3.76448e-015 0
rhumerus 46.094 16.8763 -28.4334
rradius 98.3656
rwrist -29.4838
rhand 3.9092 19.3469
rfingers 7.12502
rthumb 29.329 -8.3598
lclavicle -3.76448e-015 0
lhumerus 12.2576 -43.7227 85.8037
lradius 97.0838
lwrist 29.0934
lhand -23.351 -26.2802
lfingers 7.12502
lthumb 3.10413 3.67691
rfemur 2.47415 0.48118 19.1294
rtibia 14.7702
rfoot -18.1474 -8.28117
rtoes -9.25004
lfemur 2.44512 -0.300929 -16.1985
ltibia 9.37015
lfoot -9.51703 0.298871
ltoes -5.63624
2692
root 3.20544 17.7071 0.202937 551.179 89.4055 553.591
lowerback 5.11673 0.0958251 2.73606
upperback 1.07568 0.259681 -1.8504
thorax -1.74099 0.124532 -3.46212
lowerneck -3.81284 -4.99819 -5.68387
upperneck 4.48898 -6.85912 10.1312
head 2.50448 -3.20843 3.72437
rclavicle -3.32964e-015 1.63003e-014
rhumerus 46.2566 17.563 -27.9289
rradius 99.1051
rwrist -29.5492
rhand 4.18289 19.322
rfingers 7.12502
rthumb 29.5903 -8.33871
lclavicle -3.32964e-015 1.63003e-014
lhumerus 11.9643 -43.9944 86.0471
lradius 97.2046
lwrist 28.7758
lhand -23.6055 -26.5232
lfingers 7.12502
lthumb 2.85834 3.43744
rfemur 2.45631 0.416377 19.1215
rtibia 14.7958
rfoot -18.1044 -8.27967
rtoes -9.66687
lfemur 2.47397 -0.298709 -16.2018
ltibia 9.32867
lfoot -9.50277 0.296853
ltoes -5.8703
2693
root 3.20617 17.706 0.2023 547.108 89.3825 549.528
lowerback 5.1769 0.079064 2.75744
upperback 1.05215 0.239002 -1.89961
thorax -1.80021 0.112703 -3.5245
lowerneck -3.73298 -4.9697 -5.6202
upperneck 4.43692 -6.82169 10.1151
head 2.4701 -3.19231 3.71341
rclavicle -2.18663e-015 9.93923e-015
rhumerus 46.4367 18.3618 -27.3444
rradius 99.8055
rwrist -29.273
rhand 4.11554 19.3819
rfingers 7.12502
rthumb 29.526 -8.29019
lclavicle -2.18663e-015 9.93923e-015
lhumerus 11.6168 -44.259 86.3763
lradius 97.2652
lwrist 28.3486
lhand -23.8332 -26.8284
lfingers 7.12502
lthumb 2.63842 3.13498
rfemur 2.46082 0.371181 19.072
rtibia 14.8222
rfoot -18.1291 -8.25248
rtoes -9.58219
lfemur 2.502 -0.328432 -16.2474
ltibia 9.28806
lfoot -9.48548 0.283593
ltoes -5.67259
2694
root 3.20587 17.7069 0.202971 541.093 89.3772 543.497
lowerback 5.18661 0.070227 2.72556
upperback 1.05268 0.225273 -1.9476
thorax -1.80616 0.106063 -3.55543
lowerneck -3.70645 -4.94361 -5.58939
upperneck 4.39379 -6.78567 10.1141
head 2.44898 -3.17547 3.71086
rclavicle -9.31803e-016 1.03368e-014
rhumerus 46.703 19.1549 -26.6319
rradius 100.407
rwrist -29.1434
rhand 4.04936 19.4695
rfingers 7.12502
rthumb 29.4628 -8.21373
lclavicle -9.31803e-016 1.03368e-014
lhumerus 11.2916 -44.4987 86.6994
lradius 97.3062
lwrist 27.8905
lhand -23.9681 -27.2962
lfingers 7.12502
lthumb 2.50816 2.66882
rfemur 2.42344 0.384054 19.0016
rtibia 14.8658
rfoot -18.1449 -8.23045
rtoes -9.5158
lfemur 2.51607 -0.337026 -16.3203
ltibia 9.21931
lfoot -9.45816 0.317222
ltoes -6.16513
2695
root 3.20468 17.7081 0.204536 544.441 89.3798 546.836
lowerback 5.18506 0.070709 2.76355
upperback 1.06895 0.228038 -1.95706
thorax -1.7881 0.107934 -3.58682
lowerneck -3.67237 -4.93471 -5.52471
upperneck 4.32024 -6.77083 10.076
head 2.41688 -3.17059 3.69103
rclavicle 8.69683e-016 5.56597e-015
rhumerus 46.947 19.9429 -25.8871
rradius 101.085
rwrist -29.1577
rhand 4.23871 19.3449
rfingers 7.12502
rthumb 29.6436 -8.30634
lclavicle 8.69683e-016 5.56597e-015
lhumerus 11.0008 -44.7636 86.9596
lradius 97.4379
lwrist 27.4229
lhand -24.1336 -27.6097
lfingers 7.12502
lthumb 2.34833 2.35711
rfemur 2.39809 0.437683 19.0609
rtibia 14.8888
rfoot -18.1636 -8.29493
rtoes -9.46402
lfemur 2.5201 -0.33241 -16.2761
ltibia 9.18724
lfoot -9.44376 0.335855
ltoes -5.93605
2696
root 3.20327 17.7084 0.205283 544.583 89.3767 546.971
lowerback 5.16237 0.0793228 2.71524
upperback 1.10597 0.237436 -1.92455
thorax -1.73687 0.114519 -3.52599
lowerneck -3.74593 -4.93673 -5.56083
upperneck 4.33559 -6.77012 10.0594
head 2.43414 -3.16932 3.68994
rclavicle -1.11816e-015 -3.97569e-015
rhumerus 47.2371 20.7012 -25.0364
rradius 101.762
rwrist -29.1228
rhand 4.61166 19.4759
rfingers 7.12502
rthumb 29.9995 -8.1115
lclavicle -1.11816e-015 -3.97569e-015
lhumerus 10.8067 -45.0303 87.2101
lradius 97.5265
lwrist 26.8989
lhand -24.2801 -28.0171
lfingers 7.12502
lthumb 2.20687 1.9512
rfemur 2.36619 0.454787 19.0775
rtibia 14.9225
rfoot -18.1697 -8.39163
rtoes -9.93589
lfemur 2.53197 -0.334957 -16.2732
ltibia 9.13503
lfoot -9.41268 0.339736
ltoes -5.80364
